<svg width="24" height="22" viewBox="0 0 24 22" fill="none" xmlns="http://www.w3.org/2000/svg">
<g id="Fb">
<path id="Vector" fill-rule="evenodd" clip-rule="evenodd" d="M23.0746 11.3128C23.0746 5.37531 18.0752 0.561035 11.9094 0.561035C5.74358 0.561035 0.744141 5.37531 0.744141 11.3128C0.744141 16.679 4.82644 21.1271 10.1648 21.9344V14.4216H7.32915V11.3128H10.1648V8.94402C10.1648 6.24985 11.8321 4.76045 14.3822 4.76045C15.6039 4.76045 16.8819 4.97068 16.8819 4.97068V7.61685H15.4733C14.0871 7.61685 13.6535 8.44531 13.6535 9.29681V11.3128H16.7498L16.2554 14.4216H13.654V21.9354C18.9923 21.1285 23.0746 16.6805 23.0746 11.3128V11.3128Z" fill="#274C5B"/>
</g>
</svg>
