<svg width="23" height="22" viewBox="0 0 23 22" fill="none" xmlns="http://www.w3.org/2000/svg">
<g id="Insta">
<path id="Vector" d="M16.2308 2.28838C17.4636 2.29192 18.6449 2.76508 19.5166 3.60451C20.3883 4.44395 20.8797 5.58145 20.8834 6.76858V15.728C20.8797 16.9152 20.3883 18.0527 19.5166 18.8921C18.6449 19.7315 17.4636 20.2047 16.2308 20.2082H6.9268C5.69401 20.2047 4.51276 19.7315 3.64104 18.8921C2.76932 18.0527 2.27796 16.9152 2.27428 15.728V6.76858C2.27796 5.58145 2.76932 4.44395 3.64104 3.60451C4.51276 2.76508 5.69401 2.29192 6.9268 2.28838H16.2308V2.28838ZM16.2308 0.496582H6.9268C3.34445 0.496582 0.413574 3.31891 0.413574 6.76858V15.728C0.413574 19.1777 3.34445 22 6.9268 22H16.2308C19.8132 22 22.7441 19.1777 22.7441 15.728V6.76858C22.7441 3.31891 19.8132 0.496582 16.2308 0.496582V0.496582Z" fill="#274C5B"/>
<path id="Vector_2" d="M17.6264 6.76923C17.3504 6.76923 17.0805 6.69041 16.851 6.54273C16.6215 6.39506 16.4426 6.18516 16.337 5.93958C16.2313 5.694 16.2037 5.42377 16.2576 5.16307C16.3114 4.90237 16.4443 4.66289 16.6395 4.47494C16.8347 4.28698 17.0834 4.15898 17.3541 4.10712C17.6248 4.05527 17.9055 4.08188 18.1605 4.1836C18.4155 4.28532 18.6335 4.45758 18.7868 4.6786C18.9402 4.89961 19.0221 5.15945 19.0221 5.42526C19.0224 5.60186 18.9866 5.7768 18.9166 5.94003C18.8466 6.10326 18.7438 6.25156 18.6142 6.37644C18.4845 6.50131 18.3305 6.60029 18.161 6.6677C17.9915 6.73511 17.8098 6.76961 17.6264 6.76923V6.76923ZM11.5787 7.66489C12.3148 7.66489 13.0344 7.87509 13.6465 8.26891C14.2586 8.66274 14.7356 9.22249 15.0173 9.87739C15.299 10.5323 15.3727 11.2529 15.2291 11.9482C15.0855 12.6434 14.731 13.282 14.2105 13.7833C13.69 14.2845 13.0268 14.6259 12.3048 14.7642C11.5828 14.9024 10.8345 14.8315 10.1544 14.5602C9.47431 14.2889 8.89303 13.8296 8.48406 13.2402C8.07509 12.6508 7.8568 11.9578 7.8568 11.249C7.85786 10.2987 8.25033 9.38768 8.94809 8.71576C9.64586 8.04384 10.5919 7.6659 11.5787 7.66489V7.66489ZM11.5787 5.87309C10.4746 5.87309 9.39524 6.18838 8.47718 6.77909C7.55912 7.3698 6.84358 8.20939 6.42105 9.1917C5.99851 10.174 5.88796 11.2549 6.10336 12.2977C6.31877 13.3406 6.85047 14.2984 7.63121 15.0503C8.41195 15.8021 9.40668 16.3141 10.4896 16.5215C11.5725 16.729 12.695 16.6225 13.7151 16.2156C14.7352 15.8087 15.6071 15.1197 16.2205 14.2356C16.8339 13.3516 17.1613 12.3122 17.1613 11.249C17.1613 9.82319 16.5732 8.45582 15.5262 7.44765C14.4793 6.43948 13.0593 5.87309 11.5787 5.87309V5.87309Z" fill="#274C5B"/>
</g>
</svg>
