<svg width="24" height="20" viewBox="0 0 24 20" fill="none" xmlns="http://www.w3.org/2000/svg">
<g id="Twiter">
<path id="Vector" d="M23.9998 2.94593C23.1023 3.33589 22.1527 3.59281 21.181 3.70855C22.2022 3.11061 22.9701 2.16066 23.3408 1.03687C22.3754 1.60141 21.3209 1.99752 20.2225 2.20822C19.76 1.7235 19.2037 1.33789 18.5876 1.07482C17.9714 0.811763 17.3082 0.676749 16.6382 0.677987C13.9256 0.677987 11.7304 2.84125 11.7304 5.50795C11.7285 5.87888 11.771 6.24871 11.857 6.60953C9.91195 6.51834 8.00729 6.02215 6.26494 5.15269C4.52259 4.28323 2.98092 3.05965 1.73854 1.56024C1.30268 2.29501 1.07218 3.13337 1.07112 3.98769C1.07112 5.66247 1.9449 7.14287 3.26429 8.01017C2.48259 7.99161 1.7169 7.78472 1.03224 7.40704V7.46686C1.03224 9.80957 2.72696 11.7585 4.96998 12.2021C4.54819 12.3146 4.11353 12.3715 3.67701 12.3716C3.36726 12.3721 3.05822 12.3421 2.75438 12.2819C3.37794 14.2009 5.19279 15.5966 7.3426 15.6364C5.59572 16.9827 3.45102 17.7103 1.24557 17.705C0.854101 17.7044 0.462992 17.6811 0.0742188 17.6352C2.31783 19.0679 4.92584 19.8257 7.58784 19.8184C16.6277 19.8184 21.5663 12.4563 21.5663 6.0712C21.5663 5.86185 21.5608 5.6525 21.5509 5.44814C22.5094 4.76629 23.3387 3.91896 23.9998 2.94593V2.94593Z" fill="#274C5B"/>
</g>
</svg>
